<svg width="24" height="24" viewBox="0 0 24 24" fill="none" xmlns="http://www.w3.org/2000/svg">
<path fill-rule="evenodd" clip-rule="evenodd" d="M3.955 2.25H20.045C20.478 2.25 20.875 2.25 21.197 2.293C21.553 2.341 21.928 2.453 22.237 2.763C22.547 3.072 22.659 3.447 22.707 3.803C22.75 4.126 22.75 4.523 22.75 4.955V5.045C22.75 5.478 22.75 5.875 22.707 6.197C22.659 6.553 22.547 6.928 22.237 7.237C21.944 7.531 21.59 7.647 21.25 7.699V13.056C21.25 14.894 21.25 16.35 21.097 17.489C20.939 18.661 20.607 19.61 19.859 20.359C19.11 21.107 18.161 21.439 16.989 21.597C15.849 21.75 14.394 21.75 12.556 21.75H11.444C9.606 21.75 8.15 21.75 7.011 21.597C5.839 21.439 4.89 21.107 4.141 20.359C3.393 19.61 3.061 18.661 2.903 17.489C2.75 16.349 2.75 14.894 2.75 13.056V7.7C2.41 7.648 2.056 7.532 1.763 7.238C1.453 6.929 1.341 6.554 1.293 6.198C1.25 5.875 1.25 5.478 1.25 5.046V4.956C1.25 4.523 1.25 4.126 1.293 3.804C1.341 3.448 1.453 3.073 1.763 2.764C2.072 2.454 2.447 2.342 2.803 2.294C3.126 2.251 3.523 2.25 3.955 2.25ZM4.25 7.75V13C4.25 14.907 4.252 16.262 4.39 17.29C4.525 18.295 4.779 18.875 5.202 19.298C5.625 19.721 6.205 19.975 7.211 20.11C8.239 20.248 9.593 20.25 11.5 20.25H12.5C14.407 20.25 15.761 20.248 16.79 20.11C17.795 19.975 18.375 19.721 18.798 19.298C19.221 18.875 19.475 18.295 19.61 17.289C19.748 16.262 19.75 14.907 19.75 13V7.75H4.25ZM2.823 3.823L2.826 3.822C2.88294 3.80043 2.94244 3.78631 3.003 3.78C3.213 3.752 3.507 3.75 4 3.75H20C20.493 3.75 20.787 3.752 20.997 3.78C21.0576 3.78629 21.1171 3.8004 21.174 3.822L21.177 3.823L21.178 3.826C21.1996 3.88293 21.2137 3.94243 21.22 4.003C21.248 4.213 21.25 4.507 21.25 5C21.25 5.493 21.248 5.787 21.22 5.997C21.2137 6.05757 21.1996 6.11707 21.178 6.174L21.177 6.177L21.174 6.178C21.1171 6.1996 21.0576 6.21371 20.997 6.22C20.787 6.248 20.493 6.25 20 6.25H4C3.507 6.25 3.213 6.248 3.003 6.22C2.94244 6.21369 2.88294 6.19957 2.826 6.178L2.823 6.177L2.822 6.174C2.80043 6.11706 2.78631 6.05756 2.78 5.997C2.752 5.787 2.75 5.493 2.75 5C2.75 4.507 2.752 4.213 2.78 4.003C2.78631 3.94244 2.80043 3.88294 2.822 3.826L2.823 3.823ZM10.478 9.75H13.522C13.736 9.75 13.932 9.75 14.098 9.761C14.276 9.773 14.471 9.801 14.67 9.883C15.098 10.061 15.44 10.402 15.617 10.83C15.699 11.029 15.727 11.224 15.739 11.402C15.75 11.567 15.75 11.764 15.75 11.978V12.022C15.75 12.236 15.75 12.432 15.739 12.598C15.727 12.776 15.699 12.971 15.617 13.17C15.4394 13.5987 15.0987 13.9394 14.67 14.117C14.471 14.199 14.276 14.227 14.098 14.239C13.933 14.25 13.736 14.25 13.522 14.25H10.478C10.264 14.25 10.068 14.25 9.902 14.239C9.70592 14.2301 9.51266 14.1889 9.33 14.117C8.90125 13.9394 8.56061 13.5987 8.383 13.17C8.31107 12.9874 8.26985 12.7941 8.261 12.598C8.25119 12.4062 8.24752 12.2141 8.25 12.022V11.978C8.25 11.764 8.25 11.568 8.261 11.402C8.273 11.224 8.301 11.029 8.383 10.83C8.56061 10.4013 8.90125 10.0606 9.33 9.883C9.529 9.801 9.724 9.773 9.902 9.761C10.067 9.75 10.264 9.75 10.478 9.75ZM9.901 11.27C9.84254 11.2955 9.79604 11.3424 9.771 11.401C9.76389 11.4349 9.75955 11.4694 9.758 11.504C9.75039 11.6692 9.74772 11.8346 9.75 12C9.75 12.243 9.75 12.388 9.758 12.496C9.762 12.563 9.768 12.591 9.77 12.599C9.79549 12.6575 9.84235 12.704 9.901 12.729C9.93492 12.7362 9.96937 12.7405 10.004 12.742C10.112 12.75 10.257 12.75 10.5 12.75H13.5C13.743 12.75 13.888 12.75 13.996 12.742C14.0306 12.7408 14.0651 12.7368 14.099 12.73C14.1575 12.7045 14.204 12.6576 14.229 12.599C14.2362 12.5651 14.2405 12.5306 14.242 12.496C14.25 12.388 14.25 12.243 14.25 12C14.25 11.757 14.25 11.612 14.242 11.504C14.2408 11.4694 14.2368 11.4349 14.23 11.401C14.2045 11.3425 14.1576 11.296 14.099 11.271C14.0651 11.2638 14.0306 11.2595 13.996 11.258C13.8308 11.2504 13.6654 11.2477 13.5 11.25H10.5C10.257 11.25 10.112 11.25 10.004 11.258C9.96939 11.2592 9.93495 11.2632 9.901 11.27Z" fill="#090C08"/>
</svg>
