<svg width="24" height="24" viewBox="0 0 20 20" fill="none" xmlns="http://www.w3.org/2000/svg">
<g clip-path="url(#clip0_1076_39409)">
<path d="M19.6124 4.74281C19.7492 4.97974 19.838 5.24129 19.8738 5.51252C19.9095 5.78375 19.8915 6.05935 19.8207 6.32359C19.75 6.58783 19.6279 6.83552 19.4614 7.05254C19.2949 7.26955 19.0873 7.45163 18.8504 7.58839L15.9385 9.26957L15.5924 15.7115C15.597 16.1528 15.4837 16.5873 15.2641 16.97C15.0445 17.3527 14.7266 17.6698 14.3434 17.8885C14.0369 18.0656 13.692 18.1657 13.3382 18.1803C12.9845 18.1949 12.6325 18.1235 12.3123 17.9722C11.9922 17.821 11.7134 17.5944 11.5 17.3118C11.2865 17.0293 11.1447 16.6992 11.0867 16.3499L10.5671 12.3708L7.66747 14.0449C7.15875 14.3386 6.5814 14.4926 5.99392 14.4913C5.40645 14.49 4.82972 14.3334 4.32218 14.0373L1.04955 12.2462C0.909021 12.1684 0.785478 12.0633 0.686215 11.9371C0.586953 11.8108 0.513983 11.6659 0.471614 11.511C0.429244 11.3561 0.418333 11.1943 0.439525 11.0351C0.460717 10.8759 0.513582 10.7225 0.595001 10.5841C0.728869 10.3726 0.926739 10.2093 1.15983 10.118C1.39292 10.0266 1.64908 10.0121 1.89105 10.0764L3.50422 10.5095C4.35789 10.7385 5.26747 10.619 6.0329 10.1773L16.7671 3.97996C17.0039 3.84321 17.2654 3.75446 17.5366 3.71878C17.8078 3.68311 18.0834 3.70121 18.3476 3.77204C18.6118 3.84288 18.8595 3.96507 19.0765 4.13163C19.2935 4.2982 19.4757 4.50587 19.6124 4.74281ZM13.2145 4.10655L6.84826 0.577751C6.46877 0.353262 6.03626 0.234158 5.59541 0.232742C5.15457 0.231325 4.72136 0.347649 4.34055 0.569695C4.03407 0.746752 3.77506 0.995442 3.58568 1.29449C3.3963 1.59353 3.28219 1.93403 3.25311 2.28685C3.22403 2.63967 3.28085 2.9943 3.4187 3.32041C3.55656 3.64651 3.77134 3.93438 4.04468 4.15938L7.84235 7.20816L13.2145 4.10655Z" fill="currentColor"/>
</g>
<defs>
<clipPath id="clip0_1076_39409">
<rect width="20" height="20" fill="white"/>
</clipPath>
</defs>
</svg>
