<svg width="24" height="24" viewBox="0 0 20 20" fill="none" xmlns="http://www.w3.org/2000/svg">
<g clip-path="url(#clip0_1076_39449)">
<path d="M7.5 7.91699C7.5 8.32904 7.37781 8.73183 7.1489 9.07443C6.91998 9.41703 6.5946 9.68406 6.21392 9.84174C5.83324 9.99942 5.41436 10.0407 5.01023 9.96029C4.6061 9.87991 4.23489 9.68149 3.94353 9.39013C3.65217 9.09877 3.45375 8.72756 3.37336 8.32343C3.29298 7.9193 3.33423 7.50041 3.49192 7.11973C3.6496 6.73906 3.91663 6.41368 4.25923 6.18476C4.60183 5.95584 5.00462 5.83366 5.41667 5.83366C5.9692 5.83366 6.4991 6.05315 6.88981 6.44385C7.28051 6.83455 7.5 7.36446 7.5 7.91699ZM20 10.0003V8.33366C20 7.4496 19.6488 6.60176 19.0237 5.97664C18.3986 5.35151 17.5507 5.00033 16.6667 5.00033H12.5C11.6159 5.00033 10.7681 5.35151 10.143 5.97664C9.51786 6.60176 9.16667 7.4496 9.16667 8.33366V10.0003H20ZM1.66667 11.667V2.50033C1.66667 2.27931 1.57887 2.06735 1.42259 1.91107C1.26631 1.75479 1.05435 1.66699 0.833333 1.66699C0.61232 1.66699 0.400358 1.75479 0.244078 1.91107C0.0877974 2.06735 0 2.27931 0 2.50033L0 17.5003C0 17.7213 0.0877974 17.9333 0.244078 18.0896C0.400358 18.2459 0.61232 18.3337 0.833333 18.3337C1.05435 18.3337 1.26631 18.2459 1.42259 18.0896C1.57887 17.9333 1.66667 17.7213 1.66667 17.5003V15.8337H18.3333V17.5003C18.3333 17.7213 18.4211 17.9333 18.5774 18.0896C18.7337 18.2459 18.9457 18.3337 19.1667 18.3337C19.3877 18.3337 19.5996 18.2459 19.7559 18.0896C19.9122 17.9333 20 17.7213 20 17.5003V11.667H1.66667Z" fill="currentColor"/>
</g>
<defs>
<clipPath id="clip0_1076_39449">
<rect width="20" height="20" fill="white"/>
</clipPath>
</defs>
</svg>
