<svg width="24" height="24" viewBox="0 0 20 20" fill="none" xmlns="http://www.w3.org/2000/svg">
<g clip-path="url(#clip0_1076_39416)">
<path d="M18.3625 16.4097C18.2257 16.6467 18.0436 16.8544 17.8265 17.0209C17.6095 17.1875 17.3618 17.3097 17.0976 17.3805C16.8334 17.4513 16.5578 17.4694 16.2866 17.4338C16.0154 17.3981 15.754 17.3093 15.5171 17.1726L12.6052 15.4914L6.85331 18.4127C6.47343 18.6373 6.04048 18.7563 5.59922 18.7575C5.15796 18.7587 4.72443 18.642 4.34344 18.4195C4.03681 18.2425 3.77764 17.9939 3.58814 17.6949C3.39864 17.3958 3.28446 17.0552 3.25538 16.7024C3.22629 16.3495 3.28317 15.9948 3.42114 15.6686C3.55911 15.3425 3.77405 15.0547 4.04757 14.8298L7.23378 12.3902L4.33415 10.7161C3.82539 10.4224 3.40333 9.99944 3.11074 9.49001C2.81814 8.98058 2.66541 8.40281 2.66803 7.81525L2.58289 4.0855C2.57995 3.92492 2.6092 3.76538 2.66892 3.61628C2.72864 3.46718 2.81762 3.33155 2.9306 3.2174C3.04358 3.10324 3.17828 3.01288 3.32674 2.95163C3.4752 2.89039 3.63442 2.85951 3.795 2.86081C4.04514 2.87097 4.28551 2.96067 4.48113 3.11688C4.67676 3.27309 4.81744 3.48766 4.88272 3.72937L5.31422 5.34297C5.54273 6.19677 6.101 6.92475 6.86624 7.36678L17.6004 13.5642C17.8373 13.7009 18.0449 13.883 18.2114 14.1C18.3779 14.317 18.5 14.5647 18.5707 14.829C18.6415 15.0932 18.6595 15.3688 18.6238 15.64C18.588 15.9113 18.4993 16.1728 18.3625 16.4097ZM15.7145 10.5508L15.5874 3.2731C15.5921 2.83221 15.479 2.3981 15.2598 2.0156C15.0406 1.63311 14.7232 1.3161 14.3405 1.09734C14.034 0.920447 13.6891 0.820483 13.3354 0.805999C12.9817 0.791514 12.6298 0.86294 12.3097 1.01416C11.9896 1.16539 11.7109 1.39191 11.4974 1.67435C11.2839 1.95678 11.142 2.28673 11.0838 2.63595L10.3423 7.44922L15.7145 10.5508Z" fill="currentColor"/>
</g>
<defs>
<clipPath id="clip0_1076_39416">
<rect width="20" height="20" fill="white"/>
</clipPath>
</defs>
</svg>
