<svg xmlns="http://www.w3.org/2000/svg" width="16" height="16" viewBox="0 0 16 16" fill="none">
<g clip-path="url(#clip0_1136_2970)">
<path d="M10 15.9997C8.87968 15.9989 7.77197 15.7631 6.74838 15.3077C5.72479 14.8523 4.80806 14.1873 4.05735 13.3557C3.30097 12.5232 2.73029 11.5392 2.38318 10.4693C2.03607 9.39932 1.92045 8.26778 2.04401 7.14973C2.24322 5.40974 3.00228 3.78155 4.20692 2.5103C5.41156 1.23905 6.99658 0.393536 8.72335 0.101066C9.83963 -0.0713511 10.9788 -0.0249331 12.0773 0.237732C12.365 0.311638 12.6277 0.461068 12.8382 0.67056C13.0487 0.880051 13.1995 1.14199 13.2748 1.42928C13.3501 1.71657 13.3473 2.01877 13.2666 2.3046C13.186 2.59044 13.0304 2.84953 12.816 3.05507C9.77601 5.8324 10.04 10.1511 13.354 12.6617C13.5883 12.8456 13.7691 13.089 13.8775 13.3665C13.9858 13.6439 14.0179 13.9453 13.9702 14.2394C13.9226 14.5334 13.797 14.8093 13.6065 15.0384C13.4161 15.2674 13.1678 15.4412 12.8873 15.5417C11.9552 15.8463 10.9806 16.0009 10 15.9997Z" fill="#939492"/>
</g>
<defs>
<clipPath id="clip0_1136_2970">
<rect width="16" height="16" fill="white"/>
</clipPath>
</defs>
</svg>