<svg width="20" height="21" viewBox="0 0 20 21" fill="none" xmlns="http://www.w3.org/2000/svg">
<path d="M7.5 18V20C7.5 20.1989 7.57902 20.3897 7.71967 20.5303C7.86032 20.671 8.05109 20.75 8.25 20.75C8.44891 20.75 8.63968 20.671 8.78033 20.5303C8.92098 20.3897 9 20.1989 9 20V18H7.5ZM13 18H11.5V20C11.5 20.1989 11.579 20.3897 11.7197 20.5303C11.8603 20.671 12.0511 20.75 12.25 20.75C12.4489 20.75 12.6397 20.671 12.7803 20.5303C12.921 20.3897 13 20.1989 13 20V18Z" fill="#939492"/>
<path fill-rule="evenodd" clip-rule="evenodd" d="M15.385 4.58502L15.641 4.53302C16.0567 4.45002 16.4876 4.48999 16.881 4.64802C17.571 4.92502 18.327 4.97602 19.046 4.79602L19.107 4.78102C19.631 4.65002 20 4.16302 20 3.60302V1.47302C20 0.735016 19.336 0.191016 18.645 0.364016C18.249 0.464016 17.833 0.435016 17.452 0.283016L17.379 0.253016C16.7445 -0.00175115 16.0495 -0.0660399 15.379 0.0680164L14.93 0.158016C14.39 0.266016 14 0.758016 14 1.32802V8.28102C14 8.67802 14.31 9.00002 14.692 9.00002C14.7848 8.99833 14.8764 8.97835 14.9614 8.94124C15.0465 8.90412 15.1234 8.8506 15.1878 8.78372C15.2522 8.71685 15.3027 8.63794 15.3366 8.5515C15.3704 8.46507 15.3869 8.37282 15.385 8.28002V4.58502Z" fill="#939492"/>
<path d="M12.5002 4V8.28C12.5002 9.452 13.4282 10.5 14.6922 10.5C15.9572 10.5 16.8852 9.452 16.8852 8.28V6.229C17.6452 6.434 18.4452 6.459 19.2202 6.296C19.7122 7.138 20.0002 8.156 20.0002 9.251V15.426C20.0002 16.847 19.0122 18 17.7932 18H10.5002V9.25C10.5002 7.22 9.6682 5.276 8.2832 4H12.5002Z" fill="#939492"/>
<path fill-rule="evenodd" clip-rule="evenodd" d="M0 9.25C0 6.35 2.015 4 4.5 4C6.985 4 9 6.35 9 9.25V18H2.233C1 18 0 16.834 0 15.395V9.25ZM2.25 14C2.25 13.8011 2.32902 13.6103 2.46967 13.4697C2.61032 13.329 2.80109 13.25 3 13.25H6C6.19891 13.25 6.38968 13.329 6.53033 13.4697C6.67098 13.6103 6.75 13.8011 6.75 14C6.75 14.1989 6.67098 14.3897 6.53033 14.5303C6.38968 14.671 6.19891 14.75 6 14.75H3C2.80109 14.75 2.61032 14.671 2.46967 14.5303C2.32902 14.3897 2.25 14.1989 2.25 14Z" fill="#939492"/>
</svg>
