<svg width="24" height="24" viewBox="0 0 24 24" fill="none" xmlns="http://www.w3.org/2000/svg">
<g clip-path="url(#clip0_572_33206)">
<path d="M1.172 19.1186C0.421803 19.8686 0.00022655 20.8858 0 21.9466L0 23.9996H2.053C3.11378 23.9994 4.13103 23.5778 4.881 22.8276L18.224 9.48463L14.515 5.77563L1.172 19.1186Z" fill="#939492"/>
<path d="M23.1447 0.855175C22.9012 0.611411 22.612 0.418031 22.2937 0.286092C21.9754 0.154153 21.6343 0.0862427 21.2897 0.0862427C20.9452 0.0862427 20.604 0.154153 20.2857 0.286092C19.9674 0.418031 19.6782 0.611411 19.4347 0.855175L15.9287 4.36218L19.6377 8.07118L23.1447 4.56518C23.3885 4.32166 23.5819 4.0325 23.7138 3.7142C23.8457 3.39591 23.9136 3.05473 23.9136 2.71018C23.9136 2.36562 23.8457 2.02444 23.7138 1.70615C23.5819 1.38785 23.3885 1.09869 23.1447 0.855175Z" fill="#939492"/>
</g>
<defs>
<clipPath id="clip0_572_33206">
<rect width="24" height="24" fill="white"/>
</clipPath>
</defs>
</svg>
