<svg width="24" height="24" viewBox="0 0 24 24" fill="none" xmlns="http://www.w3.org/2000/svg">
<g clip-path="url(#clip0_913_18863)">
<path d="M15.0002 23.9998C13.3197 23.9985 11.6581 23.6449 10.1227 22.9618C8.58732 22.2787 7.21222 21.2812 6.08615 20.0338C4.95159 18.7849 4.09557 17.309 3.5749 15.7041C3.05423 14.0992 2.88081 12.4019 3.06615 10.7248C3.36496 8.1148 4.50355 5.67251 6.31051 3.76563C8.11748 1.85875 10.495 0.590487 13.0852 0.151782C14.7596 -0.106843 16.4683 -0.0372166 18.1162 0.356782C18.5476 0.467641 18.9417 0.691786 19.2575 1.00602C19.5732 1.32026 19.7993 1.71317 19.9123 2.14411C20.0253 2.57504 20.0211 3.02833 19.9001 3.45709C19.7791 3.88584 19.5457 4.27448 19.2242 4.58278C14.6642 8.74878 15.0602 15.2268 20.0312 18.9928C20.3826 19.2686 20.6538 19.6337 20.8163 20.0499C20.9789 20.4661 21.0269 20.9182 20.9554 21.3593C20.884 21.8003 20.6956 22.2142 20.4099 22.5577C20.1243 22.9013 19.7518 23.162 19.3312 23.3128C17.933 23.7696 16.4711 24.0015 15.0002 23.9998Z" fill="#939492"/>
</g>
<defs>
<clipPath id="clip0_913_18863">
<rect width="24" height="24" fill="white"/>
</clipPath>
</defs>
</svg>
