<svg width="16" height="16" viewBox="0 0 16 16" fill="none" xmlns="http://www.w3.org/2000/svg">
<path fill-rule="evenodd" clip-rule="evenodd" d="M0.668185 8.76436C0.661194 8.8881 0.678672 9.03701 0.713628 9.33623L0.993972 11.7328C1.1038 12.6713 1.55442 13.5368 2.26029 14.1649C2.96616 14.7931 3.87812 15.1402 4.82301 15.1403H7.34961C8.09209 15.1402 8.81877 14.9258 9.44233 14.5227C10.0659 14.1197 10.5598 13.5451 10.8647 12.8682H12.3783C13.0736 12.8682 13.7405 12.5919 14.2321 12.1003C14.7238 11.6086 15 10.9418 15 10.2465C15 9.55117 14.7238 8.88434 14.2321 8.39268C13.7405 7.90102 13.0736 7.62481 12.3783 7.62481H10.785C10.6505 7.55006 10.5045 7.49809 10.353 7.471C10.2314 7.45003 10.0803 7.45003 9.77972 7.45003H2.3929C2.09228 7.45003 1.94197 7.45003 1.82032 7.471C1.51113 7.52603 1.22947 7.68355 1.02072 7.91817C0.811966 8.1528 0.688278 8.45087 0.669583 8.76436H0.668185ZM11.4953 8.67348C11.4988 8.70354 11.5023 8.7343 11.5037 8.76436C11.5107 8.8881 11.4939 9.03701 11.459 9.33623L11.1786 11.7328L11.1675 11.8195H12.3783C12.7955 11.8195 13.1956 11.6538 13.4906 11.3588C13.7856 11.0638 13.9513 10.6637 13.9513 10.2465C13.9513 9.82929 13.7856 9.42919 13.4906 9.1342C13.1956 8.8392 12.7955 8.67348 12.3783 8.67348H11.4953ZM6.45684 1.4866C6.55503 1.58491 6.61018 1.71818 6.61018 1.85713C6.61018 1.99607 6.55503 2.12934 6.45684 2.22766C6.36992 2.31492 6.32112 2.43307 6.32112 2.55624C6.32112 2.67941 6.36992 2.79756 6.45684 2.88482C6.74048 3.16853 6.89983 3.55328 6.89983 3.95446C6.89983 4.35564 6.74048 4.7404 6.45684 5.02411C6.35744 5.11673 6.22598 5.16715 6.09014 5.16475C5.9543 5.16235 5.8247 5.10733 5.72863 5.01126C5.63256 4.91519 5.57753 4.78559 5.57514 4.64975C5.57274 4.51391 5.62316 4.38244 5.71578 4.28305C5.89755 4.10128 5.89755 3.80765 5.71578 3.62588C5.43214 3.34217 5.27279 2.95742 5.27279 2.55624C5.27279 2.15506 5.43214 1.77031 5.71578 1.4866C5.81409 1.3884 5.94736 1.33325 6.08631 1.33325C6.22526 1.33325 6.35853 1.3884 6.45684 1.4866ZM3.31083 2.53526C3.40902 2.63358 3.46418 2.76685 3.46418 2.90579C3.46418 3.04474 3.40902 3.17801 3.31083 3.27632L3.22973 3.35742C3.14738 3.4397 3.09751 3.54894 3.08929 3.66506C3.08107 3.78118 3.11505 3.89636 3.18499 3.98942C3.4062 4.28444 3.51357 4.64936 3.48737 5.01717C3.46117 5.38498 3.30317 5.73099 3.04237 5.99168L2.96128 6.07278C2.86188 6.16539 2.73041 6.21582 2.59457 6.21342C2.45874 6.21102 2.32913 6.15599 2.23306 6.05993C2.137 5.96386 2.08197 5.83426 2.07957 5.69842C2.07718 5.56258 2.1276 5.43111 2.22022 5.33172L2.30131 5.25062C2.38367 5.16834 2.43354 5.0591 2.44176 4.94298C2.44998 4.82686 2.416 4.71168 2.34606 4.61862C2.12484 4.3236 2.01748 3.95869 2.04368 3.59087C2.06988 3.22306 2.22788 2.87705 2.48868 2.61636L2.56977 2.53526C2.66809 2.43707 2.80135 2.38192 2.9403 2.38192C3.07925 2.38192 3.21252 2.43707 3.31083 2.53526ZM9.9524 2.53526C10.0506 2.63358 10.1057 2.76685 10.1057 2.90579C10.1057 3.04474 10.0506 3.17801 9.9524 3.27632L9.87131 3.35742C9.78895 3.4397 9.73908 3.54894 9.73086 3.66506C9.72264 3.78118 9.75662 3.89636 9.82656 3.98942C10.0478 4.28444 10.1551 4.64936 10.1289 5.01717C10.1027 5.38498 9.94474 5.73099 9.68394 5.99168L9.60285 6.07278C9.55484 6.12429 9.49696 6.16561 9.43264 6.19427C9.36832 6.22293 9.29889 6.23834 9.22849 6.23958C9.15809 6.24082 9.08815 6.22787 9.02287 6.2015C8.95758 6.17513 8.89827 6.13588 8.84848 6.08609C8.79869 6.0363 8.75944 5.97699 8.73307 5.9117C8.70669 5.84641 8.69374 5.77648 8.69499 5.70608C8.69623 5.63567 8.71164 5.56624 8.7403 5.50192C8.76895 5.43761 8.81027 5.37972 8.86179 5.33172L8.94289 5.25062C9.02524 5.16834 9.07511 5.0591 9.08333 4.94298C9.09155 4.82686 9.05757 4.71168 8.98763 4.61862C8.76642 4.3236 8.65905 3.95869 8.68525 3.59087C8.71145 3.22306 8.86945 2.87705 9.13025 2.61636L9.21134 2.53526C9.30966 2.43707 9.44293 2.38192 9.58187 2.38192C9.72082 2.38192 9.85409 2.43707 9.9524 2.53526Z" fill="currentColor"/>
</svg>
