<svg width="24" height="24" viewBox="0 0 24 24" fill="none" xmlns="http://www.w3.org/2000/svg">
<g clip-path="url(#clip0_1042_45252)">
<path d="M15.989 12.7002V10.0002C15.989 9.73497 16.0943 9.48062 16.2819 9.29308C16.4694 9.10555 16.7238 9.00019 16.989 9.00019H17.989C18.2542 9.00019 18.5085 8.89483 18.6961 8.70729C18.8836 8.51976 18.989 8.2654 18.989 8.00019V7.00019C18.989 6.73497 19.0943 6.48062 19.2819 6.29308C19.4694 6.10554 19.7238 6.00019 19.989 6.00019H22.674C22.869 5.99924 23.0597 5.94216 23.2232 5.83576C23.3867 5.72937 23.5161 5.57815 23.596 5.40019C23.9337 4.65636 24.0637 3.83494 23.972 3.02319C23.8577 2.17802 23.438 1.40391 22.7921 0.846979C22.1462 0.290051 21.3188 -0.0111653 20.466 0.000187529C19.2627 0.000263627 18.1088 0.478317 17.258 1.32919L9.34998 9.23519C8.07527 8.90404 6.7351 8.92061 5.46898 9.28319C3.72703 9.77577 2.22203 10.8818 1.23168 12.3971C0.241329 13.9124 -0.167533 15.7348 0.0805405 17.528C0.328614 19.3211 1.21688 20.9641 2.58143 22.1536C3.94598 23.3432 5.69473 23.999 7.50498 24.0002C7.76684 23.9999 8.02852 23.9863 8.28898 23.9592C9.77913 23.7969 11.1869 23.1936 12.3321 22.2264C13.4773 21.2592 14.3077 19.9722 14.717 18.5302C15.0807 17.2645 15.0969 15.9243 14.764 14.6502L15.414 14.0002C15.7596 13.6527 15.9645 13.1897 15.989 12.7002ZM5.49998 20.0002C5.20331 20.0002 4.9133 19.9122 4.66662 19.7474C4.41995 19.5826 4.22769 19.3483 4.11416 19.0742C4.00063 18.8001 3.97092 18.4985 4.0288 18.2076C4.08668 17.9166 4.22954 17.6493 4.43932 17.4395C4.6491 17.2297 4.91637 17.0869 5.20734 17.029C5.49831 16.9711 5.79991 17.0008 6.074 17.1144C6.34809 17.2279 6.58236 17.4202 6.74718 17.6668C6.912 17.9135 6.99998 18.2035 6.99998 18.5002C6.99998 18.898 6.84194 19.2795 6.56064 19.5608C6.27933 19.8422 5.8978 20.0002 5.49998 20.0002Z" fill="#939492"/>
</g>
<defs>
<clipPath id="clip0_1042_45252">
<rect width="24" height="24" fill="white"/>
</clipPath>
</defs>
</svg>
